<svg xmlns="http://www.w3.org/2000/svg" width="1280" height="720" viewBox="0 0 1280 720">
 <rect x="0" y="0" width="1280" height="720" rx="0" fill="#121417" stroke="none"/>
 <path d="M65 66l22-22m-19 0h19v19" stroke="#ffe263" stroke-width="5" fill="none"/>
 <text x="103" y="66" font-family="Arial, Helvetica, sans-serif" font-size="32" font-weight="700" fill="#f3f1e9">jumpstart</text>
 <text x="846" y="61" font-family="Menlo, DejaVu Sans Mono, monospace" font-size="14" font-weight="600" fill="#ffe263">OPEN SOURCE → YOUR PRODUCT</text>
 <path d="M64 88h1152" stroke="#383d43"/>
 <g opacity="1" transform="translate(0,0)"><text x="64" y="125" font-family="Menlo, DejaVu Sans Mono, monospace" font-size="14" font-weight="600" fill="#ffe263">01 / START WITH YOUR PRODUCT</text><text x="60" y="238" font-family="Arial, Helvetica, sans-serif" font-size="88" font-weight="700" fill="#f3f1e9">Build on</text><text x="60" y="328" font-family="Arial, Helvetica, sans-serif" font-size="88" font-weight="700" fill="#f3f1e9">what exists.</text><text x="64" y="392" font-family="Arial, Helvetica, sans-serif" font-size="26" font-weight="400" fill="#a9adb0">Find the open-source foundations.</text><text x="64" y="430" font-family="Arial, Helvetica, sans-serif" font-size="26" font-weight="400" fill="#a9adb0">Make them your own.</text><rect x="64" y="512" width="105" height="30" rx="15" fill="#1e2227" stroke="none"/><text x="77" y="533" font-family="Arial, Helvetica, sans-serif" font-size="13" font-weight="600" fill="#f3f1e9">DISCOVER</text><rect x="181" y="512" width="99" height="30" rx="15" fill="#1e2227" stroke="none"/><text x="194" y="533" font-family="Arial, Helvetica, sans-serif" font-size="13" font-weight="600" fill="#f3f1e9">INSPECT</text><rect x="292" y="512" width="116" height="30" rx="15" fill="#ffe263" stroke="none"/><text x="305" y="533" font-family="Arial, Helvetica, sans-serif" font-size="13" font-weight="600" fill="#121417">COMBINE</text><rect x="690" y="158" width="526" height="384" rx="12" fill="#1e2227" stroke="#383d43"/><text x="722" y="203" font-family="Menlo, DejaVu Sans Mono, monospace" font-size="14" font-weight="600" fill="#a9adb0">THE BRIEF</text><text x="722" y="258" font-family="Arial, Helvetica, sans-serif" font-size="32" font-weight="600" fill="#f3f1e9">“I need a local</text><text x="722" y="302" font-family="Arial, Helvetica, sans-serif" font-size="32" font-weight="600" fill="#f3f1e9">Markdown previewer.</text><text x="722" y="358" font-family="Arial, Helvetica, sans-serif" font-size="25" font-weight="400" fill="#a9adb0">Find pieces we can combine.</text><text x="722" y="396" font-family="Arial, Helvetica, sans-serif" font-size="25" font-weight="400" fill="#a9adb0">Show me what to keep,</text><text x="722" y="434" font-family="Arial, Helvetica, sans-serif" font-size="25" font-weight="400" fill="#a9adb0">simplify, and write.”</text><text x="722" y="508" font-family="Menlo, DejaVu Sans Mono, monospace" font-size="14" font-weight="600" fill="#ffe263">AVAILABLE CONTEXT → BETTER OPTIONS</text></g>
 <rect x="64" y="647" width="268" height="2" rx="0" fill="#383d43" stroke="none"/><rect x="64" y="647" width="89.33333333333333" height="2" rx="0" fill="#ffe263" stroke="none"/><text x="64" y="680" font-family="Menlo, DejaVu Sans Mono, monospace" font-size="14" font-weight="600" fill="#f3f1e9">01 BRIEF</text><rect x="356" y="647" width="268" height="2" rx="0" fill="#383d43" stroke="none"/><rect x="356" y="647" width="0" height="2" rx="0" fill="#ffe263" stroke="none"/><text x="356" y="680" font-family="Menlo, DejaVu Sans Mono, monospace" font-size="14" font-weight="600" fill="#a9adb0">02 MENU</text><rect x="648" y="647" width="268" height="2" rx="0" fill="#383d43" stroke="none"/><rect x="648" y="647" width="0" height="2" rx="0" fill="#ffe263" stroke="none"/><text x="648" y="680" font-family="Menlo, DejaVu Sans Mono, monospace" font-size="14" font-weight="600" fill="#a9adb0">03 COMBINE</text><rect x="940" y="647" width="268" height="2" rx="0" fill="#383d43" stroke="none"/><rect x="940" y="647" width="0" height="2" rx="0" fill="#ffe263" stroke="none"/><text x="940" y="680" font-family="Menlo, DejaVu Sans Mono, monospace" font-size="14" font-weight="600" fill="#a9adb0">04 PROVE</text>
 <text x="846" y="706" font-family="Menlo, DejaVu Sans Mono, monospace" font-size="14" font-weight="600" fill="#a9adb0">EDITED WALKTHROUGH · REAL EXAMPLE</text>
 </svg>